<svg id="Capa_1" data-name="Capa 1" xmlns="http://www.w3.org/2000/svg" viewBox="0 0 82.74 128.04"><defs><style>.cls-1{fill:#ed6c4d;}.cls-2{fill:#ffef4b;}.cls-3{fill:#00aac6;}</style></defs><polygon class="cls-1" points="38.87 0 41.37 19.75 43.87 0 38.87 0"/><polygon class="cls-1" points="29.33 3.9 41.37 19.75 33.66 1.4 29.33 3.9"/><polygon class="cls-1" points="23.02 12.04 41.37 19.75 25.52 7.71 23.02 12.04"/><polygon class="cls-1" points="57.23 7.71 41.37 19.75 59.72 12.04 57.23 7.71"/><polygon class="cls-1" points="49.08 1.4 41.37 19.75 53.41 3.9 49.08 1.4"/><path class="cls-1" d="M297.38,374.5l-10,23.9a52.31,52.31,0,0,0,25.3,12.89Z" transform="translate(-256.01 -356.77)"/><path class="cls-1" d="M267.62,445.88,256,473.74a82.84,82.84,0,0,0,82.74,0L335.53,466C306.09,468.61,283.59,458.28,267.62,445.88Z" transform="translate(-256.01 -356.77)"/><path class="cls-2" d="M335.53,466l-15.71-37.68c-12.17,3.1-27.11,3.88-44.6-.66l-7.6,18.22C283.59,458.28,306.09,468.61,335.53,466Z" transform="translate(-256.01 -356.77)"/><path class="cls-3" d="M319.82,428.32l-7.1-17a52.31,52.31,0,0,1-25.3-12.89l-12.2,29.26C292.71,432.2,307.65,431.42,319.82,428.32Z" transform="translate(-256.01 -356.77)"/></svg>